<?xml version="1.0" encoding="UTF-8" standalone="no"?>
<svg
   width="128"
   height="128"
   version="1.1"
   id="svg6"
   sodipodi:docname="DefaultProjectIcon.svg"
   inkscape:version="1.3.2 (091e20e, 2023-11-25, custom)"
   xmlns:inkscape="http://www.inkscape.org/namespaces/inkscape"
   xmlns:sodipodi="http://sodipodi.sourceforge.net/DTD/sodipodi-0.dtd"
   xmlns="http://www.w3.org/2000/svg"
   xmlns:svg="http://www.w3.org/2000/svg">
  <defs
     id="defs6" />
  <sodipodi:namedview
     id="namedview6"
     pagecolor="#ffffff"
     bordercolor="#000000"
     borderopacity="0.25"
     inkscape:showpageshadow="2"
     inkscape:pageopacity="0.0"
     inkscape:pagecheckerboard="0"
     inkscape:deskcolor="#d1d1d1"
     inkscape:zoom="4.3144562"
     inkscape:cx="37.664074"
     inkscape:cy="42.531432"
     inkscape:window-width="1920"
     inkscape:window-height="991"
     inkscape:window-x="-9"
     inkscape:window-y="-9"
     inkscape:window-maximized="1"
     inkscape:current-layer="svg6" />
  <rect
     width="124"
     height="124"
     x="2"
     y="2"
     fill="#363d52"
     stroke="#212532"
     stroke-width="4"
     rx="14"
     id="rect1" />
  <g
     fill="#414042"
     transform="translate(12.322 12.322)scale(.101)"
     id="g6">
    <circle
       cx="307"
       cy="532"
       r="60"
       id="circle5" />
    <circle
       cx="717"
       cy="532"
       r="60"
       id="circle6" />
  </g>
  <path
     d="m 35.247209,52.835532 1.084232,-0.896192 0.579246,-0.37582 0.638655,-0.33246 -0.84659,1.387654 -1.960524,2.688564 z"
     fill="#0e0f0e"
     fill-rule="nonzero"
     node-id="44"
     stroke="none"
     target-height="28.200012"
     target-width="18.899994"
     target-x="338.7"
     target-y="450.9"
     id="path2"
     style="stroke-width:0.146522" />
  <path
     d="m 26.617918,69.631862 0.831739,0.07224 -0.148524,2.413927 -1.514954,0.231276 0.950557,-1.879106 z"
     fill="#0e0f0e"
     fill-rule="nonzero"
     node-id="46"
     stroke="none"
     target-height="18.799988"
     target-width="11.200012"
     target-x="278.4"
     target-y="578.2"
     id="path3"
     style="stroke-width:0.146522" />
  <path
     d="m 102.52895,11.972149 0.41587,0.390279 0.34162,0.404732 0.28219,0.448096 0.3416,0.70828 0.26735,0.766097 0.20793,0.78055 1.1585,5.998692 0.60896,3.671493 0.35644,2.44284 0.53471,4.914586 0.16337,2.4573 0.0593,2.471745 -0.0149,2.4573 -0.0891,1.835744 -0.14852,1.850196 -0.22279,1.83575 -0.29705,1.835743 -0.23764,1.040733 -0.31189,0.997376 -0.40102,0.954011 -0.46043,0.93955 -0.53469,0.896192 -0.57925,0.867281 -0.95055,1.272012 -1.00997,1.214194 -2.094198,2.385022 -2.925948,-5.940874 0.920858,-0.650461 0.861438,-0.722732 0.802037,-0.766098 0.742633,-0.809463 0.68321,-0.88174 0.6238,-0.896186 0.5644,-0.95401 0.49012,-0.982915 0.43072,-1.011829 0.34162,-1.04074 0.28219,-1.069646 0.47528,-2.905389 0.20794,-1.806839 0.14853,-1.82129 0.0743,-1.821285 0.0298,-2.428386 -0.0594,-2.428388 -0.14853,-2.428388 -0.20794,-2.428386 -0.57925,-4.842316 z"
     fill="#000000"
     fill-rule="nonzero"
     node-id="48"
     stroke="none"
     target-height="317.09998"
     target-width="69.20001"
     target-x="757.8"
     target-y="179.3"
     id="path4"
     style="stroke-width:0.146522" />
  <path
     d="m 73.700291,74.127273 0.193077,-0.6071 0.252488,-0.578178 0.311898,-0.520372 0.356462,-0.491461 0.876306,-0.867275 1.024821,-0.679379 0.549538,-0.274634 1.173347,-0.404733 1.247615,-0.187907 1.232746,0.02898 0.623806,0.08674 0.608961,0.159007 0.579244,0.216817 0.564398,0.274645 1.084231,0.679368 0.475281,0.361363 0.415861,0.404734 0.37132,0.433642 0.41586,0.636009 0.341614,0.679368 0.252487,0.722727 0.163373,0.737197 0.07424,0.751637 v 0.780557 l -0.07424,0.766095 -0.163373,0.751648 -0.237641,0.737187 -0.311897,0.708277 -0.401014,0.664907 -0.460434,0.636009 -0.816886,0.477002 -0.84659,0.433643 -0.876295,0.390284 -0.891153,0.303544 -1.232757,0.260185 -0.638654,0.07225 -0.802039,-0.144548 -0.772332,-0.231265 -0.757475,-0.318004 -0.698064,-0.390273 -0.668361,-0.462553 -0.608948,-0.52037 -0.549551,-0.578191 -0.47527,-0.635998 -0.401013,-0.664918 -0.326769,-0.708289 -0.237629,-0.737187 -0.148525,-0.780545 -0.04456,-0.578191 0.0149,-0.578189 0.08912,-0.607089 z m 1.901115,1.315377 0.282194,0.260185 0.237641,0.158997 0.23764,0.07225 h 0.475282 l 0.594091,-0.274646 0.341615,-0.260174 1.262462,-1.113011 -1.292167,-1.72011 -0.297052,-0.202366 -0.297051,-0.115638 -0.282193,-0.04337 -0.297051,0.0145 -0.549551,0.187917 -0.490128,0.375813 -0.207936,0.231276 -0.163373,0.260185 -0.222782,0.56373 -0.0149,0.592651 0.05934,0.274634 0.133679,0.260185 0.207936,0.245726 z"
     fill="#000000"
     fill-rule="nonzero"
     node-id="50"
     stroke="none"
     target-height="91"
     target-width="90.5"
     target-x="599.3"
     target-y="577.4"
     id="path5"
     style="stroke-width:0.146522" />
  <path
     d="m 40.02971,70.860521 0.579245,-0.274646 0.579247,-0.216816 0.594097,-0.158997 0.594103,-0.08674 1.217901,-0.0145 1.203051,0.187906 0.787181,0.245725 0.742624,0.318017 0.71292,0.404722 0.653513,0.477012 0.594096,0.54927 0.519837,0.607099 0.34161,0.505911 0.297046,0.520371 0.237644,0.54928 0.326752,1.156381 0.08911,0.56373 v 1.09855 l -0.103957,0.722727 -0.178233,0.708288 -0.267344,0.693817 -0.341605,0.650469 -0.415869,0.621549 -0.475279,0.57819 -0.534693,0.520372 -0.579247,0.477001 -0.638656,0.404722 -0.668363,0.346914 -0.712915,0.274646 -0.742628,0.187906 H 43.653721 L 42.88139,83.421649 42.109066,83.306012 41.366437,83.118106 40.653522,82.857919 39.955451,82.539915 39.287095,82.164091 38.678141,81.716 l -0.594097,-0.520372 -0.386168,-0.477001 -0.341603,-0.52037 -0.519837,-1.084102 -0.237644,-0.780556 -0.133668,-0.780557 -0.04459,-0.809455 0.05938,-0.795006 0.133669,-0.780557 0.222793,-0.766096 0.237636,-0.56373 0.608954,-1.026282 0.371311,-0.477002 0.41587,-0.433642 0.475279,-0.390283 0.519837,-0.346904 z m -0.282202,2.168191 -0.386161,0.130098 -0.311902,0.173456 -0.252494,0.216827 -0.193076,0.260175 -0.133676,0.289095 -0.08911,0.303545 0.01486,0.636009 0.237635,0.6071 0.178234,0.260185 0.252487,0.231265 0.267344,0.173468 0.34161,0.115627 0.802031,0.05787 0.34161,-0.07224 0.267344,-0.144548 0.252493,-0.202367 0.178228,-0.245725 0.237643,-0.592639 0.04453,-0.664919 -0.04453,-0.332454 -0.237643,-0.6071 -0.193078,-0.245725 -0.222792,-0.202366 -0.282195,-0.144548 -0.297051,-0.08674 h -0.341604 z"
     fill="#000000"
     fill-rule="nonzero"
     node-id="52"
     stroke="none"
     target-height="92.5"
     target-width="92.100006"
     target-x="350"
     target-y="581.5"
     id="path6"
     style="stroke-width:0.146522" />
  <path
     d="m 44.94588,43.815809 2.272433,-2.254927 -0.07427,2.095927 z"
     fill="#161713"
     fill-rule="nonzero"
     node-id="56"
     stroke="none"
     target-height="15.600006"
     target-width="15.300018"
     target-x="407.4"
     target-y="384"
     id="path8"
     style="stroke-width:0.146522" />
  <path
     d="m 58.535899,76.5412 2.302141,0.02898 1.158491,0.08674 1.143642,0.144547 1.128783,0.202366 1.128794,0.260186 0.133668,0.896184 -0.0149,0.462552 -0.10402,0.679379 -0.401014,1.387645 -0.920855,2.399478 -0.222784,0.404722 -0.282202,0.375835 -0.326753,0.332453 -0.37131,0.289096 -0.386169,0.245725 -0.41587,0.187917 -0.43072,0.101123 -0.430721,0.0145 -0.326753,-0.04337 -0.638661,-0.245736 -0.326753,-0.231265 -0.475278,-0.549281 -0.386163,-0.578189 -0.311902,-0.6071 -0.237643,-0.650459 -0.326753,-1.358735 -0.133675,-1.055203 -0.02973,-1.06964 0.05938,-2.081474 z m 0.02973,0.838376 0.490128,3.136664 0.32676,1.546654 0.401012,1.546653 0.81689,-0.390285 0.282193,0.65047 1.351577,-0.332464 0.371312,-0.173446 0.326758,-0.231288 0.519838,-0.592628 0.401012,-0.766108 0.237643,-0.636009 0.727768,-2.674113 0.207936,-0.54928 -2.153612,-0.231265 z"
     fill="#161713"
     fill-rule="nonzero"
     node-id="58"
     stroke="none"
     target-height="58.799988"
     target-width="50.5"
     target-x="495.5"
     target-y="626"
     id="path9"
     style="stroke-width:0.146522" />
  <path
     d="m 80.6661,99.235052 1.812001,0.115638 -0.178219,0.462552 -0.207936,0.390268 -0.401025,0.43364 -0.519833,0.26019 -0.698066,0.0867 -0.326767,0.93956 -0.29704,-1.14193 -1.217909,-0.10123 z"
     fill="#161713"
     fill-rule="nonzero"
     node-id="60"
     stroke="none"
     target-height="18.599976"
     target-width="25.899963"
     target-x="634.2"
     target-y="783"
     id="path10"
     style="stroke-width:0.146522" />
  <path
     d="m 60.600397,83.219262 1.633771,0.318006 -1.351577,0.332464 z"
     fill="#fefaf2"
     fill-rule="nonzero"
     node-id="62"
     stroke="none"
     target-height="4.5"
     target-width="11"
     target-x="512.8"
     target-y="672.2"
     id="path11"
     style="stroke-width:0.146522" />
  <path
     d="m 39.747508,73.028712 0.430728,-0.08674 h 0.341603 l 0.297052,0.08674 0.282195,0.144547 0.222792,0.202367 0.326752,0.534831 0.103979,0.318005 0.04453,0.664907 -0.133676,0.636009 -0.148525,0.289095 -0.193078,0.245726 -0.237644,0.202367 -0.267343,0.144546 -0.34161,0.07225 h -0.415871 l -0.38616,-0.05775 -0.341611,-0.115637 -0.267344,-0.173457 -0.252486,-0.231266 -0.193084,-0.260186 -0.133675,-0.289094 -0.08911,-0.318005 -0.01487,-0.636009 0.08911,-0.303544 0.133675,-0.289096 0.193078,-0.260185 0.237643,-0.216816 0.326753,-0.173457 z"
     fill="#fefdfd"
     fill-rule="nonzero"
     node-id="64"
     stroke="none"
     target-height="24.5"
     target-width="23"
     target-x="363.2"
     target-y="601.1"
     id="path12"
     style="stroke-width:0.146522" />
  <path
     d="m 53.783105,24.894637 0.475279,-1.185287 0.802037,-1.344282 0.579247,-0.751646 1.26246,-1.431011 -1.217901,2.529569 -1.336726,2.457294 -1.039674,1.561107 -0.579247,0.737185 0.995115,1.705655 2.881382,5.131411 1.009972,1.691196 1.084234,1.647837 -3.074465,-7.834435 -0.965415,-2.645213 2.896237,1.011829 0.950558,0.361366 0.92085,0.419191 0.876297,0.505913 1.039674,0.910646 2.153609,1.705648 7.946085,5.478324 1.099078,0.852829 2.257578,1.864655 1.128794,1.040733 1.099078,1.098558 1.039679,1.127465 1.009963,1.170827 1.856564,2.442842 0.861437,1.27201 1.084242,1.749014 0.995115,1.777926 1.901116,3.671493 2.495219,4.350854 2.257578,4.307497 1.604064,3.526948 0.698065,1.806827 0.608948,1.821287 0.534693,1.850198 0.326756,1.402106 0.267347,1.431015 0.193077,1.431015 0.207936,2.89094 -0.0149,1.431003 -0.10402,1.402106 -0.178231,1.416565 -0.267334,1.387646 -0.341615,1.373196 -0.415872,1.358735 -0.504986,1.344298 -0.564386,1.300917 -0.638666,1.272007 -0.698064,1.243109 -0.772322,1.214188 -0.831744,1.17083 -0.891153,1.12747 -0.950552,1.084091 -1.915974,1.965846 -1.084231,0.80945 -1.128784,0.73719 -1.158499,0.69382 -3.564603,1.96584 -2.302129,1.4021 -0.608949,-0.96845 -0.564397,-0.67937 -0.297052,-0.24574 -0.207936,-0.10121 -0.207935,-0.0433 -0.207936,0.0145 -0.193078,0.0867 -0.193076,0.17346 -0.846591,1.09855 -1.143641,1.66229 -2.019936,0.57819 -2.034796,0.477 -2.049642,0.40473 -2.064497,0.30356 -2.064491,0.23126 -2.079348,0.14455 -2.094199,0.0723 -2.079349,-0.0145 -2.0942,-0.10122 -2.079348,-0.17345 -2.064498,-0.26018 -2.064491,-0.33246 -2.049647,-0.41918 -2.019933,-0.49147 -2.00509,-0.57818 -1.990231,-0.65047 -0.831741,-0.20236 -0.86144,-2.25492 -0.2822,0.53482 -0.341604,0.49146 -0.386169,0.43364 -0.905999,0.78055 -0.490129,0.3469 -4.871619,-3.51247 -1.589212,-1.25756 -2.01994,-1.749022 -0.950557,-0.925093 -0.905999,-0.968463 -0.846597,-1.011833 -0.787182,-1.055191 -0.534687,-0.809466 -0.935706,-1.734559 -0.40102,-0.925094 -0.386161,-1.922476 -0.297053,-1.951375 -0.193077,-1.951387 -0.08911,-1.965834 -0.01486,-1.965836 0.07426,-1.951386 0.178234,-1.965836 0.252486,-1.951386 0.35646,-1.936926 0.430721,-1.922477 0.504986,-1.908004 0.608955,-1.879118 0.683213,-1.850198 0.757474,-1.821291 0.831738,-1.777925 1.990233,-3.671487 1.12879,-1.879109 1.188201,-1.821291 1.262459,-1.777925 2.643744,-3.483573 2.064492,-2.544023 8.599589,-9.988187 3.475483,-4.235219 2.614036,-3.498033 1.232752,-1.792378 1.173349,-1.835751 1.113934,-1.89356 z m -8.837225,18.921172 2.198167,-0.159 0.07427,-2.095927 z m -3.66856,5.059141 -0.282202,0.08673 -0.222786,0.144541 -0.326752,0.390279 -0.148525,0.477002 0.01486,0.49146 0.178233,0.419184 0.341605,0.289096 0.222784,0.07228 h 0.267351 l 0.326753,-0.07228 0.297053,-0.08673 0.237634,-0.130088 0.326754,-0.404731 0.163377,-0.491461 -0.01487,-0.520368 -0.193077,-0.433643 -0.148527,-0.173453 -0.193084,-0.115636 -0.222786,-0.05779 -0.282201,0.01447 z m -6.030111,3.960582 -0.504981,2.471746 1.960524,-2.688564 0.84659,-1.387654 -0.638655,0.33246 -0.579246,0.37582 z m -5.525125,13.240484 0.386168,0.231277 0.371311,0.115635 0.356462,0.0434 0.35646,-0.02898 0.341603,-0.08674 0.34161,-0.159001 0.594097,-0.448096 0.267345,-0.289095 0.34161,-0.462549 0.237636,-0.505914 0.103957,-0.346914 0.05938,-0.664914 -0.04453,-0.318001 -0.118825,-0.289097 -0.178226,-0.24573 -0.237644,-0.202365 -0.326752,-0.173454 -0.41587,-0.115635 -0.386161,0.202366 -0.32676,0.216817 -0.267344,0.274638 -0.341604,0.477007 -0.267344,0.534819 z m 57.048389,-2.717478 -0.148526,0.520367 -0.0149,0.375826 0.05934,0.260183 0.10402,0.173454 0.17823,0.115636 0.252499,0.05779 0.371308,-0.01447 0.519834,-0.115637 0.133667,-0.534826 0.0149,-0.375818 -0.05934,-0.245732 -0.11882,-0.173454 -0.178231,-0.115635 -0.237641,-0.0578 -0.371308,0.01447 z m -60.152555,6.273324 0.118818,0.838375 -0.950557,1.879107 1.514954,-0.231276 0.148524,-2.413927 z m 47.082373,4.495411 -0.148526,0.607099 -0.08912,0.6071 -0.0149,0.578179 0.04456,0.578191 0.148538,0.780556 0.237629,0.737187 0.326756,0.708278 0.401013,0.664918 0.475282,0.635998 0.549551,0.57819 0.608949,0.520371 0.668359,0.462552 0.698064,0.390273 0.757476,0.318005 0.772332,0.231276 0.802027,0.144548 0.193089,0.650458 0.267346,0.6071 0.222794,0.390272 0.594091,0.63601 0.356462,0.260174 0.415871,0.187917 0.460424,0.144548 1.113936,0.216816 1.1585,0.130097 1.544654,0.04337 1.529808,-0.159007 0.742617,-0.173446 0.72778,-0.231287 0.698064,-0.289085 0.66836,-0.361363 0.638655,-0.419194 0.237641,-0.448091 0.148525,-0.390273 0.05934,-0.361374 0.0149,-0.346914 -0.05934,-0.332454 L 91.389594,81.802719 91.18167,81.513624 90.825208,81.18117 90.424183,80.877615 89.934055,80.61743 88.894376,80.241606 88.32999,80.140484 87.750735,80.082734 h -0.549539 l -0.54954,0.07225 -0.519833,0.130098 -0.475282,0.187906 -0.415871,0.260186 0.475281,-0.636009 0.386167,-0.664919 0.311897,-0.708277 0.237641,-0.737187 0.163373,-0.751637 0.07424,-0.766106 v -0.780546 l -0.07424,-0.751648 -0.163373,-0.737186 -0.252499,-0.722738 -0.341602,-0.679368 -0.41586,-0.636009 -0.37132,-0.433631 -0.415861,-0.404733 -0.475281,-0.361364 -1.084231,-0.679379 -0.564398,-0.274635 -0.579244,-0.216816 -0.608961,-0.159007 -1.232756,-0.130087 -1.247603,0.08674 -0.623808,0.115638 -1.173347,0.404722 -1.084231,0.592651 -0.490128,0.361362 -0.876306,0.867287 -0.356462,0.49145 -0.311898,0.520371 -0.252488,0.57819 z m -33.670581,-3.266752 -0.564395,0.303544 -0.519838,0.346914 -0.475278,0.390273 -0.41587,0.433643 -0.371312,0.477001 -0.608953,1.026282 -0.237637,0.56373 -0.222791,0.766096 -0.133668,0.780557 -0.05938,0.795006 0.04459,0.809466 0.133669,0.780557 0.237642,0.780545 0.222786,0.549281 0.297051,0.53482 0.326753,0.520371 0.401019,0.477002 -2.985354,0.896194 -0.50498,0.202367 -0.846597,0.50591 -0.356453,0.303556 -0.267344,0.361363 -0.193085,0.404733 -0.08911,0.303545 -0.01487,0.361363 0.04453,0.419194 0.118818,0.477001 0.356461,0.433642 0.401013,0.361364 0.430726,0.303543 0.49013,0.231287 1.054525,0.346904 0.846597,0.144548 0.87629,0.05775 0.891149,0.0145 3.059613,-0.187916 0.490131,-0.101123 0.445577,-0.159007 0.401019,-0.231276 0.37131,-0.260186 0.341605,-0.317993 0.282201,-0.346914 0.252494,-0.404733 0.341602,-0.867286 0.118819,-0.968463 0.742629,-0.187906 0.712915,-0.274646 0.668362,-0.346914 0.638655,-0.404722 0.579247,-0.477001 0.534694,-0.520371 0.475279,-0.57819 0.41587,-0.621549 0.341602,-0.650469 0.267345,-0.693818 0.178233,-0.708288 0.103968,-0.722727 v -1.09855 l -0.08911,-0.56373 -0.326754,-1.15638 -0.237642,-0.549281 -0.297045,-0.52037 -0.34161,-0.505912 -0.519838,-0.607099 -0.594096,-0.549269 -0.653512,-0.477013 -0.712922,-0.404722 -0.742622,-0.318016 -0.787181,-0.245725 -0.594096,-0.115638 -1.217908,-0.08674 -1.203052,0.115626 -0.594097,0.159008 -0.579246,0.216816 z m 18.506189,5.680679 -0.445571,0.02898 -0.05938,2.081475 0.02973,1.069651 0.133675,1.055192 0.326753,1.358735 0.237643,0.650459 0.311901,0.607099 0.386163,0.57819 0.475279,0.549281 0.638655,0.390273 0.653512,0.130098 0.43072,-0.0145 0.43072,-0.101122 0.41587,-0.187907 0.386169,-0.245737 0.371311,-0.289095 0.326753,-0.332454 0.504987,-0.780556 0.920849,-2.399478 0.401014,-1.387646 0.10402,-0.679378 0.0149,-0.462541 -0.133668,-0.896184 -1.128794,-0.260186 -1.128777,-0.202366 -1.143642,-0.144547 -1.158492,-0.08674 z m -33.804245,9.872558 -0.267344,0.346913 -0.05939,0.216816 -0.02973,0.346915 0.05938,0.346914 0.118819,0.317993 0.193084,0.274646 0.326753,0.260175 0.386169,0.07225 0.222785,-0.05775 0.237643,-0.130098 0.148519,-0.173446 0.148527,-0.390284 0.01487,-0.332454 -0.04453,-0.332454 -0.133675,-0.318004 -0.326753,-0.419193 -0.356462,-0.173457 -0.193083,-0.0145 -0.207935,0.04337 z m 3.505185,8.730627 -0.252493,0.780545 -0.01487,0.737198 0.08911,0.477002 0.148519,0.462541 0.237642,0.462551 0.608956,0.838376 0.950557,0.910644 0.980265,0.679368 0.297045,0.11563 0.252492,0.0434 0.252494,-0.029 0.207935,-0.0722 0.163377,-0.1301 0.252493,-0.37582 0.07426,-0.260185 0.04453,-0.390273 -0.05938,-0.433642 -0.207935,-0.534821 -0.84659,-1.344286 -0.401018,-0.534821 -0.772331,-0.766096 -0.727772,-0.433643 -0.386161,-0.130086 -0.430722,-0.07225 z m 52.429261,4.090667 -2.034794,1.445468 1.217909,0.10124 0.29704,1.14192 0.326767,-0.93956 0.698066,-0.0867 0.519833,-0.26019 0.401025,-0.43364 0.207936,-0.390271 0.178219,-0.462552 z"
     fill="#fefbf2"
     fill-rule="nonzero"
     node-id="66"
     stroke="none"
     target-height="616.9"
     target-width="502.1"
     target-x="242.1"
     target-y="236.1"
     id="path13"
     style="stroke-width:0.146522" />
  <path
     d="m 44.351783,22.914346 0.727772,-0.520367 0.668357,-0.231277 0.460429,-0.02893 0.445577,0.0434 0.44557,0.130095 0.861447,0.448097 1.039675,0.795002 1.663479,1.561107 -0.01487,0.303548 -1.975381,-1.127463 -1.024817,-0.477009 -1.069382,-0.404731 -0.727772,-0.216819 z"
     fill="#fefbf2"
     fill-rule="nonzero"
     node-id="68"
     stroke="none"
     target-height="22.699982"
     target-width="42.5"
     target-x="403.4"
     target-y="249.6"
     id="path14"
     style="stroke-width:0.146522" />
  <path
     d="m 70.566418,23.694896 1.45554,-1.387647 3.044757,-2.645207 1.574359,-1.243104 2.138757,-1.618925 2.198168,-1.546649 2.24273,-1.488829 4.60427,-2.833119 5.881579,-3.3101207 3.56459,-1.8935682 0.757487,4.2496786 1.143641,7.1406143 0.698065,5.738508 0.267349,2.876477 0.17823,2.876484 0.0891,2.876483 v 2.153745 l -0.0593,2.153745 -0.11882,2.168204 -0.17822,2.153744 -0.133679,0.925105 -0.19309,0.881734 -0.297039,0.838368 -0.371308,0.795009 -0.43073,0.78055 -0.490129,0.737192 -1.128795,1.387647 -0.638654,0.664915 -2.019936,1.850203 -2.094205,1.73456 2.881385,5.550595 1.410987,2.804207 1.351578,2.833119 0.861436,1.90802 1.544669,3.859403 0.66836,1.965825 0.5941,1.980295 0.50497,2.009205 0.32677,1.517743 0.25249,1.532194 0.20792,1.561101 0.2228,2.760842 v 1.170829 l -0.0593,1.156381 -0.3119,2.298289 -0.65351,2.84757 -0.49013,1.691211 -2.465528,7.675424 -0.401014,0.939553 -0.460423,0.925105 -0.519834,0.881736 -0.579256,0.85282 -0.638655,0.82392 -0.683206,0.76611 -0.727769,0.73717 -0.787191,0.67937 -0.816886,0.636 -0.861448,0.57819 -0.906,0.53483 -2.019937,1.0552 -2.049641,0.98291 -2.079347,0.8962 -2.109052,0.83836 -2.138757,0.75165 -2.168461,0.67937 -2.183309,0.60709 -2.213026,0.53483 -2.227883,0.44809 -2.24272,0.39027 -2.257577,0.31802 -2.272424,0.23126 -2.272434,0.17345 -2.272427,0.0867 -2.287281,0.0289 -2.272434,-0.0434 -2.287284,-0.13008 -2.257575,-0.18791 -2.257577,-0.26018 -4.069579,-0.63602 -1.782297,-0.37582 -1.782297,-0.46254 -1.752595,-0.52039 -1.722889,-0.60708 -1.693179,-0.69383 -1.64863,-0.75163 -1.618919,-0.83838 -1.26246,-0.72274 -1.232758,-0.78055 -1.1882,-0.82391 -1.158493,-0.88175 -1.128784,-0.92509 -3.549743,-3.13666 -1.871415,-1.864657 -1.351575,-1.590012 -0.608954,-0.838375 -0.549539,-0.867274 -0.490136,-0.910645 -0.41587,-0.939564 -0.341603,-0.982912 -0.267344,-1.026282 -0.326759,-1.994745 -0.252487,-2.009205 -0.163383,-2.009194 -0.05938,-2.009206 0.01486,-2.023654 0.0891,-2.009193 0.193084,-2.009206 0.267345,-2.009205 0.35646,-1.980284 0.445577,-1.965836 0.51983,-1.951386 0.608956,-1.936927 0.69807,-1.908016 0.772323,-1.864654 0.846598,-1.835743 0.935699,-1.806838 1.099091,-2.023657 1.173342,-1.965832 1.24761,-1.922473 1.307018,-1.879108 1.351576,-1.835744 1.396135,-1.806837 2.168459,-2.674112 9.015459,-10.465188 2.198166,-2.645212 1.440694,-1.792378 2.747705,-3.671488 -2.168459,-0.534826 -1.099084,-0.346906 -1.054531,-0.419191 -0.668356,-0.332454 -0.608955,-0.390279 -0.579245,-0.448095 -0.386169,-0.37582 -0.341603,-0.404732 -0.311903,-0.462549 -0.267344,-0.520366 0.02973,-0.563739 0.103968,-0.505914 0.193085,-0.462549 0.252492,-0.419183 0.311902,-0.390278 0.371312,-0.346908 0.84659,-0.592644 0.490136,-0.24573 0.757474,-0.318002 0.78718,-0.24573 1.514954,-0.318002 -0.252494,-1.676742 -0.02973,-0.549279 0.02973,-0.346914 0.08911,-0.332454 0.148526,-0.303549 0.207934,-0.260189 0.297052,-0.231272 0.401013,-0.216818 0.460427,-0.159001 0.81689,-0.101173 0.341603,0.02893 0.475279,0.115635 0.430727,0.187914 0.415869,0.274635 0.371312,0.318008 0.683213,0.795003 0.475278,0.664916 1.203052,1.965837 0.504986,-0.361366 2.064492,-1.922473 0.534687,-0.390271 0.371319,-0.216826 0.38616,-0.144548 0.698066,-0.08672 0.638661,0.144548 0.356454,0.159 0.163384,0.679368 0.07426,0.679368 v 0.664921 l -0.178226,1.344282 -0.475286,1.66229 -0.965408,2.934295 3.980464,1.618924 3.950755,1.705656 1.945679,0.925098 1.901116,1.011827 -0.148525,-2.674117 0.02978,-0.896187 0.07424,-0.592643 0.133666,-0.549278 0.193089,-0.534821 0.193078,-0.375826 0.564397,-0.708279 z m 3.445771,-1.026282 -1.678334,1.474378 -0.534691,0.534827 -0.311899,0.375819 -0.237641,0.404731 -0.297051,0.751645 -0.04456,0.722732 0.133668,0.997376 0.148526,2.544023 0.11882,0.607096 0.267347,0.766098 0.445576,0.650455 0.311898,0.289096 6.148936,4.10513 3.75768,2.68857 1.856553,1.387648 1.886269,-7.068337 5.124105,-13.457307 5.257781,-13.4283962 -3.861653,2.4139283 -3.831937,2.4717529 -5.034989,3.411303 -2.465513,1.763474 -2.435808,1.80683 -2.376398,1.864655 z m 22.011387,-12.994757 -1.188204,2.818666 -1.128794,2.818659 -1.084231,2.862024 -1.009963,2.876484 -1.871422,5.796326 -1.648617,5.854143 -0.594103,1.57556 -0.504975,1.59002 -0.445576,1.618925 -0.267346,1.228646 -0.207936,1.2431 -0.148526,1.243106 -0.08912,1.257552 0.742627,0.968469 0.920848,0.867281 3.638859,4.741133 2.91109,-2.240474 0.920848,-0.780557 0.876295,-0.838369 0.831743,-0.896192 0.371307,-0.505914 0.31191,-0.505914 0.252488,-0.549273 0.297051,-0.838375 0.207936,-0.867281 0.133667,-0.896192 0.297052,-2.674111 0.05934,-3.180032 v -3.180026 l -0.07424,-3.180032 -0.148526,-3.165572 -0.460423,-6.345606 -0.445577,-4.755592 -0.534692,-4.7411321 z m -48.226017,7.935617 0.445572,1.445473 0.772329,1.691194 0.564397,0.997377 1.247608,1.893561 -0.163376,1.474377 -1.663479,-1.561107 -0.608954,-0.491455 -0.86144,-0.54928 -0.430728,-0.202365 -0.44557,-0.130095 -0.445577,-0.0434 -0.460429,0.02893 -0.326752,0.08673 -0.698066,0.361366 -0.371311,0.303547 -1.084232,0.462551 0.950557,0.621549 0.980265,0.563731 1.009968,0.491462 1.039674,0.433637 1.069382,0.375826 2.183309,0.578185 1.128791,0.216818 -0.148526,-1.994745 2.079349,0.70828 -1.113934,1.893562 -1.173349,1.83575 -1.232753,1.792377 -1.292168,1.763474 -2.688302,3.440209 -2.10905,2.52957 -6.460831,7.473069 -2.138757,2.515117 -2.064491,2.544023 -1.351578,1.720107 -2.554626,3.541393 -1.188201,1.82129 -1.128791,1.879109 -1.990231,3.671486 -0.831741,1.777926 -0.757472,1.821288 -0.683214,1.850197 -0.608953,1.879107 -0.504987,1.908016 -0.430721,1.922478 -0.35646,1.936925 -0.252486,1.951386 -0.178234,1.965836 -0.07426,1.951385 0.01487,1.965836 0.08911,1.965835 0.193078,1.951387 0.297053,1.951375 0.38616,1.922476 0.40102,0.925094 0.935707,1.734558 0.534687,0.809467 0.787182,1.055191 0.846597,1.011833 0.905999,0.968463 1.945672,1.821284 2.628893,2.11039 4.856763,3.51247 0.490129,-0.3469 0.905998,-0.78056 0.386169,-0.43364 0.341604,-0.49145 0.282201,-0.53483 0.86144,2.25493 0.831741,0.20236 -2.361544,-0.34692 1.054525,2.03813 2.005089,0.636 2.019933,0.57819 2.049647,0.50591 2.04964,0.44809 2.079349,0.37582 2.079343,0.31801 2.094206,0.24573 2.094198,0.17345 2.109051,0.11564 2.109056,0.0578 2.10905,-0.0289 2.109049,-0.0723 2.094204,-0.14454 2.109052,-0.21683 2.079347,-0.27462 2.094205,-0.34692 2.064489,-0.40473 2.034794,-0.47701 2.034784,-0.54927 2.019947,-0.59265 1.990232,-0.67936 1.960527,-0.7372 1.945679,-0.795 1.915974,-0.86729 2.881374,-1.47437 0.950563,-0.59265 0.920847,-0.66491 0.861448,-0.73719 0.802039,-0.78054 0.742617,-0.85283 0.490128,-0.679374 0.445577,-0.693817 0.401013,-0.737198 0.356462,-0.766096 1.113947,-3.107755 1.960515,-6.30224 0.37132,-1.329825 0.267346,-1.329838 0.193075,-1.329826 0.10402,-1.329838 0.0298,-1.344275 -0.0446,-1.344297 -0.10402,-1.344276 -0.17824,-1.344287 -0.311899,-1.777929 -0.401013,-1.763469 -0.475282,-1.749019 -0.549539,-1.749009 -1.217898,-3.367941 -2.628898,-5.796322 -1.381281,-2.862031 -1.45554,-2.833119 -1.024821,-1.850196 -1.069384,-1.821292 -1.143641,-1.80683 -0.995116,-1.445471 -1.069372,-1.387647 -1.099089,-1.32983 -1.173347,-1.286471 -1.217898,-1.228646 -1.27732,-1.199735 -1.307014,-1.141923 -1.351577,-1.098557 -1.871423,-1.402101 -1.915963,-1.32983 -1.990231,-1.257559 -2.019937,-1.19974 -2.064499,-1.127463 -2.109052,-1.055194 -2.123898,-1.011828 -4.277525,-1.864649 -0.876299,-0.505913 -0.920849,-0.419192 -3.846795,-1.373193 0.965415,2.645211 3.074464,7.834434 -1.084233,-1.647835 -1.009973,-1.691197 -2.88138,-5.145863 -0.995115,-1.691203 0.579246,-0.737185 1.039674,-1.561107 1.336726,-2.457292 1.217902,-2.529572 -1.262461,1.431014 -0.579246,0.751643 -0.802039,1.344283 -0.475277,1.185288 -0.683213,-0.823915 -0.282283,-0.476935 -0.401018,-0.737187 -1.054525,-2.356116 -0.386162,-0.737185 -0.445578,-0.650462 -0.326753,-0.404732 -0.371311,-0.33246 -0.430727,-0.28909 -0.445571,-0.231277 -0.534687,-0.159001 z"
     fill="#000101"
     fill-rule="nonzero"
     node-id="70"
     stroke="none"
     target-height="750.5"
     target-width="575.8"
     target-x="223"
     target-y="136.1"
     id="path15"
     style="stroke-width:0.146522" />
  <path
     d="m 74.012189,22.668614 2.346692,-1.922473 2.376398,-1.864655 2.435809,-1.80683 2.465512,-1.763474 5.034989,-3.411303 3.831937,-2.4717529 3.861654,-2.4139283 -5.257783,13.4283962 -5.124104,13.457307 -3.222999,-0.722733 -3.163567,-0.910645 -2.272435,1.517742 -0.683218,-1.82129 -1.232744,-3.671487 -0.549551,-1.850204 -0.460424,-1.879108 z m 3.044757,4.900134 2.12391,1.965839 1.128783,0.925098 0.935705,-1.936927 0.861449,-2.095926 0.222782,-0.70828 0.31191,-1.431011 0.07423,-0.722733 v -0.70828 l -0.07423,-0.693826 -0.267347,-0.997376 -0.504986,-0.982915 -1.277309,1.806837 -1.203052,1.850196 z"
     fill="#abea2f"
     fill-rule="nonzero"
     node-id="72"
     stroke="none"
     target-height="186"
     target-width="150.5"
     target-x="603.1"
     target-y="145"
     id="path16"
     style="stroke-width:0.146522" />
  <path
     d="m 96.023576,9.673857 0.920848,-0.7660975 0.53468,4.7266795 0.445578,4.755592 0.460435,6.345606 0.148525,3.165572 0.07424,3.180032 v 3.180026 l -0.05934,3.180032 -1.544665,0.809463 -3.015041,1.720107 -1.767449,0.404732 -1.247615,0.115635 -0.594102,-0.0434 -0.712912,-0.231278 -0.326756,-0.187906 -0.282193,-0.245731 -0.252499,-0.318001 -0.222783,-0.419191 -0.222782,-1.040733 -0.148526,-1.055193 -0.11882,-2.124839 v -2.124838 l 0.78718,-2.934295 1.767448,-5.825238 1.975373,-5.76742 1.069384,-2.862024 1.143642,-2.818659 z m -2.851679,24.168226 0.341604,0.202365 0.326755,0.115636 0.297041,0.0434 0.29705,-0.01447 0.564398,-0.187913 0.386167,-0.260184 0.371307,-0.346913 0.653513,-0.795009 0.534692,-0.780552 0.237641,-0.520366 0.163373,-0.505913 0.08912,-0.520368 V 29.23106 l -0.267334,-1.32983 -0.802039,-2.298292 -0.965411,1.156368 -0.445576,0.621557 -0.415872,0.664915 -0.683218,1.373194 -0.267345,0.722732 -0.371309,1.459925 -0.08912,0.751645 -0.0149,0.751637 z"
     fill="#aae92c"
     fill-rule="nonzero"
     node-id="74"
     stroke="none"
     target-height="218.5"
     target-width="70.79999"
     target-x="697.9"
     target-y="158.1"
     id="path17"
     style="stroke-width:0.146522" />
  <path
     d="m 47.797559,17.609474 0.623805,0.08673 0.534687,0.159 0.445571,0.231278 0.430727,0.289089 0.371311,0.33246 0.326753,0.404732 0.445578,0.650462 0.386162,0.737186 1.054525,2.356116 0.401018,0.737185 0.282196,0.477008 0.683213,0.823916 -0.222785,0.477003 -2.079349,-0.70828 -1.901114,-2.919843 -0.564397,-0.997376 -0.772329,-1.691194 z"
     fill="#8e4a0b"
     fill-rule="nonzero"
     node-id="76"
     stroke="none"
     target-height="53.699997"
     target-width="40.299988"
     target-x="426.6"
     target-y="218.3"
     id="path18"
     style="stroke-width:0.146522" />
  <path
     d="m 77.056946,27.568748 2.331845,-3.729304 1.203052,-1.850196 1.277309,-1.806837 0.504986,0.982915 0.267347,0.997376 0.07423,0.693826 v 0.70828 l -0.07423,0.722733 -0.31191,1.431011 -0.222782,0.70828 -0.861449,2.095926 -0.935705,1.936927 -1.128783,-0.925098 z"
     fill="#f6f7eb"
     fill-rule="nonzero"
     node-id="78"
     stroke="none"
     target-height="71.100006"
     target-width="38.100037"
     target-x="623.6"
     target-y="236.1"
     id="path19"
     style="stroke-width:0.146522" />
  <path
     d="m 70.967432,27.337476 -0.05934,-0.40473 0.04456,-0.722732 0.29705,-0.751645 0.237641,-0.404731 0.84659,-0.910646 1.678322,-1.474378 0.386167,1.893562 0.460423,1.879108 0.549551,1.850204 1.232757,3.671487 0.683206,1.82129 2.272436,-1.517742 3.163578,0.910645 3.222988,0.722733 -1.886258,7.068337 -3.727976,-2.746389 -4.767653,-3.281208 -3.282399,-2.153751 -0.297051,-0.289096 -0.445576,-0.650455 -0.267346,-0.766098 -0.178219,-1.243105 z"
     fill="#569c25"
     fill-rule="nonzero"
     node-id="80"
     stroke="none"
     target-height="126.59999"
     target-width="101.5"
     target-x="582.2"
     target-y="253.3"
     id="path20"
     style="stroke-width:0.146522" />
  <path
     d="m 43.267551,23.376895 1.084232,-0.462549 1.500096,0.274637 0.727771,0.216818 1.069384,0.404731 1.024816,0.477009 1.975381,1.127462 0.163377,-1.777924 0.668363,1.026281 0.148526,1.994744 -2.227875,-0.477003 -2.153607,-0.693826 -1.039674,-0.433637 -1.009968,-0.491462 -0.980265,-0.563732 z"
     fill="#476c09"
     fill-rule="nonzero"
     node-id="82"
     stroke="none"
     target-height="25.899994"
     target-width="56.299988"
     target-x="396.1"
     target-y="255"
     id="path21"
     style="stroke-width:0.146522" />
  <path
     d="m 93.171897,33.842083 -0.05946,-0.737192 0.0149,-0.751638 0.08912,-0.751645 0.371309,-1.459924 0.267345,-0.722732 0.326757,-0.693828 0.772333,-1.344282 0.445576,-0.621556 0.965411,-1.156369 0.802039,2.298292 0.267334,1.329829 v 1.040741 l -0.08912,0.520367 -0.163373,0.505914 -0.237641,0.520367 -0.84659,1.19974 -0.712922,0.722734 -0.386167,0.260183 -0.282194,0.115635 -0.579254,0.08673 -0.297041,-0.0434 -0.326755,-0.115635 z"
     fill="#f6fae8"
     fill-rule="nonzero"
     node-id="84"
     stroke="none"
     target-height="59.5"
     target-width="29.099976"
     target-x="731.7"
     target-y="273.6"
     id="path22"
     style="stroke-width:0.146522" />
  <path
     d="m 60.303345,29.462316 4.277521,1.86465 2.123899,1.011828 2.109052,1.055192 2.064499,1.127464 2.019937,1.199742 1.990231,1.257558 1.915962,1.329829 1.871423,1.4021 1.351577,1.098558 1.307013,1.141923 1.27732,1.199735 1.217899,1.228646 1.173347,1.286471 1.099089,1.329829 1.069373,1.387648 0.995116,1.445471 1.128794,1.806832 1.084231,1.82129 1.024821,1.850196 1.455539,2.833118 1.381282,2.862031 2.628896,5.796325 1.217899,3.36794 0.549539,1.749009 0.475282,1.74902 0.401013,1.76348 0.311898,1.777917 0.178243,1.344287 0.10402,1.344287 0.0446,1.344287 -0.0298,1.344274 -0.10402,1.329838 -0.193077,1.329837 -0.267346,1.329826 -0.37132,1.329827 -1.960515,6.302239 -1.113947,3.107755 -0.356462,0.766096 -0.401013,0.737199 -0.445577,0.693828 -0.490128,0.679372 -0.742617,0.85282 -0.802038,0.78054 -0.861449,0.7372 -0.920847,0.6649 -0.950564,0.59265 -1.009962,0.54928 -1.871411,0.9251 -1.915974,0.86729 -1.945679,0.79499 -1.960526,0.7372 -1.990232,0.67936 -2.019948,0.59265 -2.034783,0.54928 -2.034795,0.477 -2.064488,0.40473 -2.094205,0.34692 -2.079347,0.27464 -2.109052,0.21681 -2.0942,0.14454 -2.10905,0.0723 -2.10905,0.0289 -2.109056,-0.0578 -2.109051,-0.11563 -2.094198,-0.17346 -2.094206,-0.24573 -2.079342,-0.318 -2.079349,-0.37583 -2.064498,-0.44809 -2.03479,-0.5059 -2.019933,-0.5782 -2.005089,-0.636 -1.054524,-2.03811 2.361543,0.34691 1.990231,0.65046 2.005089,0.57818 2.019933,0.49146 2.049647,0.41919 2.064492,0.33246 2.064498,0.26018 2.079349,0.17347 2.094199,0.10121 2.079348,0.0145 2.094199,-0.0723 2.079349,-0.14455 2.064491,-0.23127 2.064494,-0.30355 2.049642,-0.40473 2.034794,-0.47701 2.019937,-0.57819 0.415871,0.27465 0.401014,0.159 0.371308,0.0578 h 0.386166 l 0.37132,-0.0723 0.386155,-0.13009 0.54955,-0.26019 0.549539,-0.33245 2.183309,-1.41656 5.881591,-3.33903 1.128782,-0.73719 1.084231,-0.80946 0.2525,0.30355 0.237641,0.1879 0.237641,0.10124 0.252487,0.0434 0.475282,-0.0722 0.311899,-0.18792 0.252499,-0.24573 0.118809,-0.1879 0.10402,-0.37583 -0.04456,-0.159 -0.08912,-0.144548 -0.178231,-0.130087 -0.222794,-0.07224 -0.311898,-0.02898 -0.475281,0.02898 0.995115,-1.026282 0.950564,-1.084102 0.891142,-1.127459 0.831743,-1.17083 0.772332,-1.214188 0.698066,-1.243109 0.638654,-1.272007 0.564396,-1.300916 0.504988,-1.344297 0.41586,-1.358736 0.341614,-1.373197 0.267347,-1.387644 0.178218,-1.416566 0.104021,-1.402106 0.01489,-1.431015 -0.08912,-1.431004 -0.118821,-1.459925 -0.193078,-1.431015 -0.267345,-1.431015 -0.326768,-1.402106 -0.534681,-1.850196 -0.60896,-1.821288 -0.698065,-1.806828 -1.604065,-3.526949 -0.876295,-1.734561 -1.381282,-2.572935 -1.425834,-2.529563 1.054526,-1.141924 0.980269,-1.199741 -0.05946,-0.375819 L 88.701306,54.39696 88.523075,54.078951 88.196331,53.630856 87.126946,52.344392 84.7951,53.775403 83.874253,51.954113 82.879138,50.176187 81.794907,48.427174 80.933458,47.155163 80.027457,45.912062 78.066931,43.541493 77.027252,42.414029 75.928174,41.315471 74.79938,40.274738 73.611187,39.277362 71.442725,37.557255 63.496641,32.07893 61.343034,30.373282 Z"
     fill="#d8d4d9"
     fill-rule="nonzero"
     node-id="86"
     stroke="none"
     target-height="567.4"
     target-width="425.49997"
     target-x="353.6"
     target-y="300.3"
     id="path23"
     style="stroke-width:0.146522" />
  <path
     d="m 85.834768,42.457068 0.08912,-1.257552 0.148526,-1.243106 0.207936,-1.2431 0.267346,-1.228646 0.445577,-1.618925 0.504975,-1.59002 0.594102,-1.57556 0.04456,3.194486 0.07424,1.055193 0.148526,1.055192 0.222783,1.040735 0.222782,0.41919 0.2525,0.318001 0.282204,0.245731 0.326745,0.187906 0.341602,0.144548 0.37132,0.08673 0.594103,0.0434 1.247603,-0.115635 1.767449,-0.404731 -1.975384,1.705647 -1.039668,0.780551 -1.099089,0.70828 -0.757476,0.41919 -1.618922,0.70828 -0.920848,-0.86728 z"
     fill="#5f9827"
     fill-rule="nonzero"
     node-id="88"
     stroke="none"
     target-height="80.19998"
     target-width="54.899963"
     target-x="682.7"
     target-y="322.7"
     id="path24"
     style="stroke-width:0.146522" />
  <path
     d="m 93.988782,39.970869 3.015052,-1.720107 1.544654,-0.809463 -0.29705,2.674111 -0.133668,0.896192 -0.207936,0.867281 -0.297051,0.838375 -0.252487,0.549273 -0.31191,0.505914 -0.371308,0.505914 -0.831743,0.896192 -0.876295,0.838369 -1.886269,1.546653 -1.945668,1.474378 -3.638861,-4.741133 0.831744,-0.33246 0.78718,-0.375819 0.757475,-0.419191 1.099089,-0.70828 1.039668,-0.78055 z"
     fill="#357c2b"
     fill-rule="nonzero"
     node-id="90"
     stroke="none"
     target-height="80.20001"
     target-width="74.39996"
     target-x="693.9"
     target-y="355.5"
     id="path25"
     style="stroke-width:0.146522" />
  <path
     d="m 41.27732,48.87495 0.341602,-0.101183 0.282201,-0.01447 0.222786,0.05779 0.193084,0.115635 0.148527,0.173454 0.193077,0.433643 0.01487,0.520366 -0.163377,0.491462 -0.326754,0.404731 -0.237634,0.130089 -0.623806,0.159006 h -0.2822 l -0.207935,-0.07228 -0.193078,-0.115635 -0.26735,-0.375826 -0.08911,-0.462549 0.01486,-0.245731 0.148527,-0.477001 0.326752,-0.404732 0.222785,-0.130088 z"
     fill="#84808e"
     fill-rule="nonzero"
     node-id="92"
     stroke="none"
     target-height="17.200012"
     target-width="16.100006"
     target-x="376"
     target-y="433.8"
     id="path26"
     style="stroke-width:0.146522" />
  <path
     d="m 84.795089,53.775083 2.331846,-1.431011 1.069384,1.286464 0.504975,0.766104 0.118821,0.332454 0.05934,0.375819 -0.980257,1.199741 -1.069385,1.141924 -1.054526,-1.821292 z"
     fill="#767070"
     fill-rule="nonzero"
     node-id="94"
     stroke="none"
     target-height="35.299988"
     target-width="27.5"
     target-x="675.7"
     target-y="458.6"
     id="path27"
     style="stroke-width:0.146522" />
  <path
     d="m 29.722084,66.076016 0.846596,-2.240476 0.267345,-0.534819 0.341604,-0.477009 0.267343,-0.274637 0.326759,-0.231277 0.386163,-0.187906 0.415869,0.115636 0.326753,0.173452 0.237643,0.202367 0.178227,0.24573 0.118825,0.289096 0.04453,0.636003 -0.163375,0.693827 -0.237637,0.505913 -0.34161,0.462549 -0.267343,0.289095 -0.594097,0.448096 -0.341611,0.144549 -0.341603,0.101183 -0.356461,0.02898 -0.356461,-0.04342 -0.371311,-0.115635 z"
     fill="#72717a"
     fill-rule="nonzero"
     node-id="96"
     stroke="none"
     target-height="30"
     target-width="25.300018"
     target-x="304.9"
     target-y="526.3"
     id="path28"
     style="stroke-width:0.146522" />
  <path
     d="m 86.770473,63.358538 0.504987,-0.115635 0.371308,-0.01447 0.237641,0.05779 0.178231,0.115635 0.118821,0.173454 0.05934,0.245732 -0.0149,0.375818 -0.133667,0.534826 -0.519834,0.115637 -0.371308,0.01447 -0.252499,-0.05779 -0.178231,-0.115636 -0.10402,-0.173454 -0.05934,-0.260183 0.01489,-0.375826 z"
     fill="#9ea0a3"
     fill-rule="nonzero"
     node-id="98"
     stroke="none"
     target-height="11.299988"
     target-width="11"
     target-x="687.9"
     target-y="533.9"
     id="path29"
     style="stroke-width:0.146522" />
  <path
     d="m 75.601406,75.44265 -0.282204,-0.231276 -0.207936,-0.245737 -0.133666,-0.260174 -0.05934,-0.274635 0.0149,-0.59265 0.222783,-0.56373 0.163384,-0.260186 0.207936,-0.231276 0.490128,-0.375823 0.54954,-0.187907 0.29705,-0.0145 0.282194,0.04337 0.297051,0.115638 0.297051,0.202355 1.292167,1.72011 -1.262462,1.113011 -0.341603,0.260185 -0.594103,0.274646 h -0.475281 l -0.237641,-0.07225 -0.237629,-0.158997 z"
     fill="#fffefe"
     fill-rule="nonzero"
     node-id="100"
     stroke="none"
     target-height="25.799988"
     target-width="27.700012"
     target-x="609.2"
     target-y="596"
     id="path30"
     style="stroke-width:0.146522" />
  <path
     d="m 58.565607,77.379576 4.307215,0.303555 2.153621,0.231265 -0.207936,0.54928 -0.727776,2.674113 -0.415869,1.040742 -0.460428,0.679369 -0.282195,0.274634 -0.32676,0.231288 -0.371311,0.173446 -1.633771,-0.318006 -0.81689,0.390285 -0.401012,-1.546653 -0.326759,-1.546654 z"
     fill="#d64d82"
     fill-rule="nonzero"
     node-id="102"
     stroke="none"
     target-height="43.100037"
     target-width="43.49997"
     target-x="499.1"
     target-y="631.8"
     id="path31"
     style="stroke-width:0.146522" />
  <path
     d="m 85.240666,80.733067 0.415871,-0.260185 0.475282,-0.187918 0.519833,-0.130087 0.549551,-0.07225 h 0.549528 l 0.579255,0.05775 1.099078,0.260185 0.504987,0.216827 0.490128,0.260185 0.401025,0.303545 0.356462,0.332453 0.371308,0.578191 0.17823,0.664918 -0.0149,0.346915 -0.05934,0.361363 -0.148525,0.390273 -0.237641,0.448103 -0.638655,0.419182 -0.668359,0.361375 -0.698075,0.289083 -0.727771,0.231276 -0.742616,0.173457 -1.529808,0.158997 -1.544666,-0.04337 L 83.56236,85.763236 82.448423,85.54642 81.988,85.401872 81.572128,85.213955 81.215668,84.95377 80.621565,84.317772 80.398782,83.927488 80.131437,83.320399 79.938348,82.66993 l 1.262472,-0.173446 0.608949,-0.159008 0.891143,-0.303544 0.876295,-0.390284 z"
     fill="#fea1be"
     fill-rule="nonzero"
     node-id="104"
     stroke="none"
     target-height="40.5"
     target-width="79.400024"
     target-x="643"
     target-y="650.5"
     id="path32"
     style="stroke-width:0.146522" />
  <path
     d="m 32.989632,85.430835 -0.118817,-0.477001 -0.04453,-0.419194 0.01487,-0.361363 0.08911,-0.303545 0.193084,-0.404733 0.267343,-0.361363 0.356455,-0.303556 0.846596,-0.50591 0.50498,-0.202367 2.985354,-0.896194 0.594097,0.520371 0.608954,0.448091 0.668357,0.375835 0.69807,0.317994 0.712914,0.260185 0.742631,0.187918 0.772323,0.115626 0.77233,0.05787 h 0.787181 l -0.04453,0.491451 -0.222792,0.925103 -0.193077,0.419183 -0.252494,0.404733 -0.282201,0.346914 -0.341605,0.318004 -0.371309,0.260175 -0.415871,0.231288 -0.430727,0.158995 -0.490129,0.101234 -3.059614,0.187918 -0.891148,-0.0145 -0.876291,-0.05775 L 35.722549,87.1077 35.173011,86.963163 34.177895,86.52952 33.747167,86.225965 33.346155,85.864602 Z"
     fill="#ffa2c0"
     fill-rule="nonzero"
     node-id="106"
     stroke="none"
     target-height="42.399963"
     target-width="78.20001"
     target-x="325.8"
     target-y="658.2"
     id="path33"
     style="stroke-width:0.146522" />
  <path
     d="m 24.731654,86.413758 0.237636,-0.115638 0.207934,-0.04337 0.193084,0.0145 0.356462,0.173446 0.326753,0.419193 0.133676,0.318004 0.04453,0.332454 -0.01487,0.332465 -0.05938,0.216815 -0.237636,0.346915 -0.237643,0.130087 -0.222786,0.05787 -0.193084,-0.0145 -0.371312,-0.158997 -0.341609,-0.433642 -0.118819,-0.318005 -0.05939,-0.346903 0.02973,-0.346914 0.05939,-0.216827 z"
     fill="#a9acaf"
     fill-rule="nonzero"
     node-id="108"
     stroke="none"
     target-height="16.200012"
     target-width="12.5"
     target-x="268.9"
     target-y="693.2"
     id="path34"
     style="stroke-width:0.146522" />
  <path
     d="m 28.236839,95.144385 h 0.460428 l 0.430721,0.07224 0.386161,0.130099 0.727773,0.433631 0.772329,0.766097 0.772331,1.084112 0.608954,1.05518 0.133668,0.708278 -0.04453,0.390284 -0.07426,0.260184 -0.252494,0.37582 -0.163376,0.13009 -0.207935,0.0722 -0.252493,0.029 -0.252493,-0.0434 -0.297046,-0.11563 -0.371317,-0.23128 -0.608948,-0.448078 -0.950557,-0.910655 -0.608953,-0.838375 -0.237644,-0.462541 -0.148519,-0.462553 -0.08911,-0.477001 -0.01486,-0.361375 0.133669,-0.751635 z"
     fill="#777679"
     fill-rule="nonzero"
     node-id="110"
     stroke="none"
     target-height="38.099976"
     target-width="30.799988"
     target-x="293"
     target-y="754.7"
     id="path35"
     style="stroke-width:0.146522" />
  <path
     d="m 86.800178,99.596415 0.475282,-0.02898 0.311898,0.02898 0.222783,0.07225 0.178242,0.130088 0.08912,0.144547 0.04456,0.15901 -0.10402,0.37582 -0.11882,0.1879 -0.252489,0.24573 -0.311897,0.18792 -0.237641,0.0577 -0.490141,-0.029 -0.237629,-0.10124 -0.252499,-0.1879 -0.237641,-0.30355 z"
     fill="#858488"
     fill-rule="nonzero"
     node-id="112"
     stroke="none"
     target-height="11"
     target-width="15.099976"
     target-x="683"
     target-y="785.3"
     id="path36"
     style="stroke-width:0.146522" />
  <path
     d="m 73.93792,104.68446 0.222795,-0.30354 0.193077,-0.17346 0.193088,-0.0867 0.207936,-0.0145 0.207925,0.0434 0.207936,0.10121 0.297051,0.24574 0.297051,0.31799 0.876295,1.32984 -1.589206,1.02628 -0.549551,0.26018 -0.386166,0.13009 -0.371308,0.0723 h -0.386167 l -0.371308,-0.0578 -0.401014,-0.15901 -0.415872,-0.27464 1.143642,-1.66229 z"
     fill="#7d7b7c"
     fill-rule="nonzero"
     node-id="114"
     stroke="none"
     target-height="24.399963"
     target-width="30.099976"
     target-x="590.7"
     target-y="816.7"
     id="path37"
     style="stroke-width:0.146522" />
</svg>
